<?xml version="1.0" standalone="no"?>
<!DOCTYPE svg PUBLIC "-//W3C//DTD SVG 20010904//EN"
 "http://www.w3.org/TR/2001/REC-SVG-20010904/DTD/svg10.dtd">
<svg version="1.0" xmlns="http://www.w3.org/2000/svg"
 width="1024.000000pt" height="1024.000000pt" viewBox="0 0 1024.000000 1024.000000"
 preserveAspectRatio="xMidYMid meet">

<g transform="translate(0.000000,1024.000000) scale(0.100000,-0.100000)"
fill="#000000" stroke="none">
<path d="M2030 7275 c0 -8 -5 -15 -11 -15 -8 0 -7 -6 2 -16 8 -10 19 -35 24
-58 8 -31 15 -42 33 -44 26 -4 29 6 5 23 -11 8 -17 27 -17 56 -1 24 -6 50 -13
57 -15 16 -23 15 -23 -3z"/>
<path d="M2112 7278 c-30 -30 -1 -118 39 -118 30 0 59 18 59 37 0 14 -2 14
-19 -1 -23 -21 -54 -18 -59 6 -2 12 7 18 37 23 43 7 48 14 31 46 -12 22 -68
27 -88 7z m65 -21 c-6 -18 -57 -28 -57 -12 0 8 8 18 17 23 20 12 45 4 40 -11z"/>
<path d="M1931 7237 c-27 -13 -40 -37 -20 -37 6 0 17 7 24 17 7 9 19 14 29 10
25 -10 19 -22 -16 -38 -18 -8 -34 -22 -36 -32 -7 -38 42 -63 67 -33 6 7 22 11
36 8 27 -5 35 12 10 22 -8 3 -15 16 -15 28 0 28 -26 68 -43 68 -7 0 -23 -6
-36 -13z m57 -73 c-5 -26 -35 -41 -50 -26 -11 11 -9 16 6 28 26 19 48 18 44
-2z"/>
<path d="M1709 7233 c-1 -5 0 -18 1 -30 1 -18 -4 -23 -22 -23 -30 0 -48 -18
-48 -47 0 -35 28 -83 48 -83 25 0 72 23 72 35 1 25 -35 155 -42 155 -4 0 -8
-3 -9 -7z m5 -79 c20 -20 21 -73 1 -80 -32 -13 -63 45 -43 80 11 20 22 20 42
0z"/>
<path d="M1810 7213 c-22 -8 -40 -34 -40 -59 0 -28 37 -74 60 -74 22 0 68 36
58 46 -5 4 -17 -1 -29 -11 -15 -14 -24 -17 -36 -9 -30 19 -25 32 16 39 51 8
56 16 30 49 -20 26 -31 29 -59 19z m40 -28 c10 -12 7 -15 -15 -21 -30 -7 -40
-1 -32 21 8 19 31 19 47 0z"/>
<path d="M1575 7201 c-6 -11 9 -23 19 -14 9 9 7 23 -3 23 -6 0 -12 -4 -16 -9z"/>
<path d="M1396 7144 c-19 -18 -19 -20 -5 -45 8 -16 7 -25 -7 -40 -14 -16 -15
-24 -6 -44 9 -20 19 -25 46 -25 19 0 38 5 41 10 3 6 19 10 36 10 16 0 29 5 29
10 0 6 -9 10 -20 10 -16 0 -19 5 -13 30 3 19 1 30 -6 30 -6 0 -11 -6 -11 -14
0 -21 -19 -30 -35 -16 -13 11 -12 16 5 37 35 45 -14 88 -54 47z m44 -18 c0
-21 -21 -31 -30 -15 -5 7 -6 17 -4 21 9 14 34 9 34 -6z m-5 -82 c29 -19 24
-34 -11 -34 -19 0 -24 5 -24 25 0 29 3 30 35 9z"/>
<path d="M1596 7098 c16 -66 20 -75 30 -65 11 11 -18 127 -31 127 -11 0 -10
-13 1 -62z"/>
<path d="M1210 7066 c-6 -8 -18 -12 -26 -9 -17 6 -17 2 -1 -61 15 -58 44 -80
31 -25 -12 54 -10 71 9 83 22 14 33 -1 42 -56 4 -24 12 -38 22 -38 9 0 12 6 9
18 -3 9 -8 31 -12 47 -4 17 -11 36 -17 43 -13 16 -42 15 -57 -2z"/>
<path d="M980 7049 c0 -13 31 -153 36 -158 1 -1 7 0 12 3 7 4 5 25 -3 59 -7
28 -16 64 -19 80 -6 26 -26 39 -26 16z"/>
<path d="M863 7029 c-19 -5 -33 -16 -33 -25 0 -38 34 -144 46 -144 9 0 10 8 4
29 -9 33 -5 41 22 41 28 0 69 45 62 67 -15 40 -42 49 -101 32z m71 -31 c14
-23 -11 -50 -43 -46 -20 2 -27 9 -29 30 -3 21 2 27 20 31 32 6 40 3 52 -15z"/>
<path d="M1055 7023 c-14 -13 -15 -18 -4 -22 7 -2 15 1 17 8 5 14 52 15 52 0
0 -5 -13 -15 -30 -20 -33 -12 -48 -43 -30 -64 14 -17 56 -20 65 -4 4 6 14 8
22 5 18 -7 39 4 26 13 -6 3 -16 26 -24 51 -12 39 -18 45 -45 48 -20 2 -38 -3
-49 -15z m73 -65 c-4 -31 -48 -39 -48 -9 0 17 12 25 43 30 5 0 7 -9 5 -21z"/>
<path d="M2236 6985 c-3 -9 -6 -29 -6 -44 0 -25 -3 -28 -25 -23 -21 4 -25 1
-25 -20 0 -14 8 -32 18 -41 10 -9 24 -32 32 -52 13 -34 16 -35 65 -35 51 0 52
1 64 38 7 20 11 53 9 72 -3 31 -8 37 -45 50 -33 11 -43 20 -45 39 -3 30 -32
40 -42 16z m35 -53 c1 -26 3 -39 6 -29 6 24 23 21 24 -5 l2 -23 4 23 c2 12 9
22 14 22 5 0 10 -10 10 -22 1 -18 2 -19 6 -5 2 9 9 15 14 12 13 -8 11 -52 -3
-92 -12 -32 -15 -34 -52 -31 -31 2 -42 9 -55 33 -9 17 -25 43 -35 58 -23 34
-11 51 14 20 10 -13 21 -23 24 -23 3 0 6 27 6 61 0 71 19 73 21 1z"/>
<path d="M7571 6964 c-22 -29 -27 -74 -11 -104 13 -23 73 -44 102 -34 28 8 38
22 38 50 0 17 -7 23 -30 26 -38 6 -50 -9 -15 -18 29 -7 31 -16 10 -34 -11 -9
-25 -10 -48 -4 -41 12 -55 49 -36 90 11 23 22 30 52 32 26 2 39 -1 43 -12 7
-17 34 -22 34 -7 0 19 -45 41 -81 41 -29 0 -43 -6 -58 -26z"/>
<path d="M7740 6901 c-18 -34 -12 -89 11 -101 24 -13 61 -10 66 7 3 7 -8 11
-29 10 -27 -2 -34 2 -36 21 -4 24 2 24 71 5 13 -3 17 2 17 24 0 38 -16 53 -57
53 -22 0 -36 -6 -43 -19z m68 -3 c21 -21 14 -35 -18 -30 -16 2 -30 10 -30 16
0 27 27 35 48 14z"/>
<path d="M5513 6884 c-9 -27 -8 -29 13 -29 27 0 30 13 11 40 -13 17 -15 16
-24 -11z m22 -4 c3 -5 1 -10 -4 -10 -6 0 -11 5 -11 10 0 6 2 10 4 10 3 0 8 -4
11 -10z"/>
<path d="M5920 6901 c0 -5 -9 -11 -20 -14 -20 -5 -29 -37 -10 -37 5 0 7 7 4
15 -4 10 0 15 11 15 11 0 15 -5 11 -15 -3 -8 -1 -15 4 -15 6 0 10 14 10 30 0
17 -2 30 -5 30 -3 0 -5 -4 -5 -9z"/>
<path d="M6102 6880 c0 -19 2 -27 5 -17 2 9 2 25 0 35 -3 9 -5 1 -5 -18z"/>
<path d="M5830 6876 c0 -31 6 -34 13 -6 3 11 1 23 -4 26 -5 3 -9 -6 -9 -20z"/>
<path d="M5990 6876 c0 -31 6 -34 13 -6 3 11 1 23 -4 26 -5 3 -9 -6 -9 -20z"/>
<path d="M7865 6854 c-3 -26 -9 -53 -12 -62 -4 -9 -1 -13 7 -10 8 2 18 21 24
43 12 43 39 66 56 49 8 -8 8 -25 0 -59 -11 -48 -6 -71 10 -46 13 22 23 102 13
111 -4 4 -27 10 -49 14 l-42 6 -7 -46z"/>
<path d="M5578 6883 c7 -3 16 -2 19 1 4 3 -2 6 -13 5 -11 0 -14 -3 -6 -6z"/>
<path d="M5628 6883 c7 -3 16 -2 19 1 4 3 -2 6 -13 5 -11 0 -14 -3 -6 -6z"/>
<path d="M5670 6881 c0 -6 8 -7 17 -4 12 5 15 2 10 -10 -3 -9 -2 -17 4 -17 6
0 9 8 7 17 -3 19 -38 31 -38 14z"/>
<path d="M5722 6870 c0 -14 2 -19 5 -12 2 6 2 18 0 25 -3 6 -5 1 -5 -13z"/>
<path d="M5752 6870 c0 -14 2 -19 5 -12 2 6 2 18 0 25 -3 6 -5 1 -5 -13z"/>
<path d="M5780 6881 c0 -6 6 -8 14 -5 8 3 16 -2 20 -13 4 -15 5 -15 3 2 -2 20
-37 35 -37 16z"/>
<path d="M5941 6868 c1 -19 2 -19 6 -5 3 11 11 16 19 13 9 -3 12 -1 9 4 -12
19 -35 10 -34 -12z"/>
<path d="M6036 6882 c6 -4 14 -14 17 -22 4 -10 6 -8 6 8 1 15 -5 22 -16 22
-11 0 -14 -3 -7 -8z"/>
<path d="M6123 6872 c0 -10 7 -19 14 -19 17 0 16 5 -1 23 -13 12 -15 12 -13
-4z"/>
<path d="M8007 6852 c-20 -22 -22 -83 -5 -100 15 -15 75 -16 84 0 5 8 -2 9
-23 5 -31 -6 -53 6 -53 31 0 11 10 13 45 8 43 -7 45 -6 45 17 0 49 -61 74 -93
39z m71 -26 c3 -16 0 -18 -24 -12 -35 9 -38 12 -29 26 11 17 49 7 53 -14z"/>
<path d="M8136 6835 c-13 -35 -18 -115 -7 -115 6 0 11 8 11 19 0 38 22 81 41
81 10 0 19 5 19 11 0 5 -8 9 -17 7 -10 -1 -23 1 -29 5 -7 4 -14 0 -18 -8z"/>
<path d="M8350 6813 c-10 -12 -15 -39 -15 -78 0 -49 3 -60 18 -63 9 -2 17 1
17 7 0 6 -5 11 -11 11 -17 0 -1 72 19 88 11 9 13 15 6 20 -6 4 -13 13 -15 20
-3 9 -8 8 -19 -5z"/>
<path d="M8217 6814 c-13 -13 5 -25 19 -13 17 14 44 5 44 -16 0 -11 -11 -15
-40 -15 -34 0 -41 -4 -46 -24 -9 -35 4 -48 41 -44 18 2 37 -2 44 -9 7 -8 17
-11 23 -7 7 5 7 8 0 13 -7 4 -8 20 -2 46 12 52 -1 75 -44 75 -18 0 -36 -3 -39
-6z m51 -63 c11 -6 10 -11 -3 -25 -29 -29 -70 -12 -45 19 14 17 29 19 48 6z"/>
<path d="M8406 6758 c-37 -53 0 -119 59 -104 35 9 31 24 -6 22 -20 0 -35 5
-42 16 -16 25 -5 30 41 20 48 -11 62 6 37 44 -20 32 -68 32 -89 2z m58 6 c25
-9 19 -34 -7 -34 -30 0 -40 10 -26 27 13 15 12 15 33 7z"/>
<path d="M8617 6701 c-26 -39 -42 -73 -37 -76 5 -3 15 3 22 15 23 36 98 17 98
-26 0 -8 5 -14 10 -14 13 0 12 19 -4 100 -16 88 -31 88 -89 1z m68 -29 c-1 -2
-14 0 -28 3 l-25 7 21 36 22 37 6 -40 c4 -22 6 -41 4 -43z"/>
<path d="M2664 6726 c-12 -31 0 -51 31 -51 27 0 30 4 33 33 3 30 1 32 -28 32
-17 0 -33 -6 -36 -14z m54 -18 c-2 -15 -11 -24 -25 -26 -19 -3 -23 1 -23 22 0
21 5 26 26 26 21 0 25 -4 22 -22z"/>
<path d="M2820 6708 c0 -36 4 -35 14 5 4 16 2 27 -4 27 -5 0 -10 -14 -10 -32z"/>
<path d="M2863 6720 c-3 -11 -9 -17 -14 -14 -5 3 -9 1 -9 -5 0 -21 19 -20 26
1 l8 23 7 -25 c7 -23 7 -23 8 8 1 35 -18 44 -26 12z"/>
<path d="M3300 6712 c0 -18 4 -32 8 -32 9 0 8 47 -1 57 -4 3 -7 -8 -7 -25z"/>
<path d="M8846 6714 c-5 -20 -10 -24 -19 -15 -23 23 -57 13 -74 -24 -24 -51
-9 -90 35 -90 18 0 32 -3 32 -7 0 -5 4 -8 9 -8 9 0 19 37 36 133 8 43 -9 52
-19 11z m-18 -47 c7 -37 -7 -67 -32 -67 -29 0 -36 15 -24 58 7 27 13 33 31 30
12 -2 23 -11 25 -21z"/>
<path d="M2904 6716 c-7 -18 3 -36 19 -36 7 0 6 4 -3 10 -13 8 -12 10 3 10 10
0 17 5 15 12 -7 19 -27 21 -34 4z"/>
<path d="M2954 6716 c-7 -18 3 -36 19 -36 7 0 6 4 -3 10 -13 8 -12 10 3 10 10
0 17 5 15 12 -7 19 -27 21 -34 4z"/>
<path d="M3000 6720 c0 -5 5 -10 10 -10 6 0 10 5 10 10 0 6 -4 10 -10 10 -5 0
-10 -4 -10 -10z"/>
<path d="M3062 6705 c0 -16 2 -22 5 -12 2 9 2 23 0 30 -3 6 -5 -1 -5 -18z"/>
<path d="M3088 6703 c5 -21 7 -23 10 -9 2 10 0 22 -6 28 -6 6 -7 0 -4 -19z"/>
<path d="M3115 6718 c-6 -16 -1 -45 8 -54 10 -10 37 16 37 36 0 10 -7 21 -16
24 -22 8 -24 8 -29 -6z m30 -23 c0 -10 -7 -20 -15 -22 -12 -4 -12 -3 -1 5 9 7
10 12 2 16 -15 10 -14 29 2 24 6 -3 12 -13 12 -23z"/>
<path d="M3192 6705 c0 -16 2 -22 5 -12 2 9 2 23 0 30 -3 6 -5 -1 -5 -18z"/>
<path d="M3218 6703 c5 -21 7 -23 10 -9 2 10 0 22 -6 28 -6 6 -7 0 -4 -19z"/>
<path d="M3244 6715 c-7 -18 3 -35 21 -35 18 0 26 25 12 39 -15 15 -27 14 -33
-4z m28 -10 c0 -5 -5 -11 -11 -13 -6 -2 -11 4 -11 13 0 9 5 15 11 13 6 -2 11
-8 11 -13z"/>
<path d="M3334 6716 c-7 -18 3 -36 19 -36 7 0 6 4 -3 10 -13 8 -12 10 3 10 10
0 17 5 15 12 -7 19 -27 21 -34 4z"/>
<path d="M3385 6720 c-3 -6 1 -13 10 -16 13 -6 14 -8 3 -15 -9 -6 -9 -9 -1 -9
20 0 26 20 8 26 -13 6 -14 8 -3 15 9 6 9 9 1 9 -6 0 -15 -5 -18 -10z"/>
<path d="M3042 6700 c0 -14 2 -19 5 -12 2 6 2 18 0 25 -3 6 -5 1 -5 -13z"/>
<path d="M8890 6665 c-10 -13 -10 -19 5 -35 10 -11 26 -22 36 -25 11 -4 19
-13 19 -21 0 -19 -39 -18 -62 3 -17 15 -18 15 -18 -1 0 -22 42 -40 74 -32 38
9 36 51 -5 71 -16 9 -28 22 -26 28 5 14 39 10 49 -6 4 -6 10 -8 14 -4 13 12
-18 37 -46 37 -15 0 -33 -7 -40 -15z"/>
<path d="M9112 6668 c-7 -7 -12 -20 -12 -30 0 -9 -11 -28 -25 -42 -30 -31 -31
-40 -4 -67 15 -15 29 -20 50 -15 15 3 31 1 34 -4 8 -13 35 -13 35 0 0 6 -7 10
-15 10 -8 0 -15 4 -15 9 0 5 7 14 15 21 8 7 15 20 15 29 -1 13 -5 11 -20 -7
l-19 -23 -11 21 c-13 24 -14 23 18 39 27 14 29 47 3 61 -25 13 -34 13 -49 -2z
m48 -23 c0 -16 -27 -32 -37 -22 -3 4 -3 13 0 22 8 20 37 20 37 0z m-40 -81
c13 -34 13 -34 -9 -34 -28 0 -47 26 -31 45 18 22 29 19 40 -11z"/>
<path d="M9307 6623 c-19 -63 -28 -136 -19 -145 7 -7 12 1 17 22 6 28 11 31
38 30 56 -3 66 0 77 20 23 42 -1 68 -77 84 -25 6 -32 4 -36 -11z m90 -23 c9 0
1 -49 -9 -52 -26 -9 -68 5 -68 22 0 40 10 49 43 39 18 -5 33 -9 34 -9z"/>
<path d="M9450 6541 c-17 -33 -12 -89 9 -101 29 -15 49 -12 71 10 22 22 27 79
8 98 -20 20 -76 15 -88 -7z m70 -6 c9 -11 10 -25 4 -48 -8 -25 -15 -32 -34
-32 -20 0 -26 6 -28 27 -6 53 30 86 58 53z"/>
<path d="M9580 6520 c-11 -20 3 -42 45 -66 11 -6 15 -15 11 -22 -10 -17 -32
-15 -51 4 -20 20 -33 10 -15 -11 9 -11 26 -15 49 -13 29 2 37 8 39 26 3 16 -5
27 -27 40 -17 9 -31 23 -31 30 0 15 32 16 48 0 6 -6 15 -8 19 -4 11 11 -26 36
-54 36 -12 0 -27 -9 -33 -20z"/>
<path d="M9702 6524 c-7 -8 -10 -18 -7 -23 3 -6 1 -29 -4 -53 -9 -36 -8 -45 6
-55 9 -7 20 -10 26 -6 5 3 4 9 -3 13 -17 11 -3 87 18 100 10 5 12 10 5 10 -7
0 -13 7 -13 15 0 19 -11 19 -28 -1z"/>
<path d="M9773 6493 c-20 -8 -16 -51 6 -58 29 -9 46 -34 33 -47 -8 -8 -18 -6
-37 6 -30 20 -44 14 -25 -9 9 -11 26 -15 49 -13 29 2 37 8 39 26 3 16 -5 27
-27 40 -17 9 -31 23 -31 30 0 15 32 16 48 0 6 -6 15 -8 19 -4 19 18 -42 42
-74 29z"/>
<path d="M2662 6448 c-7 -7 -12 -16 -12 -22 0 -5 6 -2 13 9 9 11 19 15 27 10
9 -5 11 -4 6 3 -9 15 -19 15 -34 0z"/>
<path d="M3056 6452 c-2 -4 4 -8 14 -8 10 0 16 4 14 8 -3 4 -9 8 -14 8 -5 0
-11 -4 -14 -8z"/>
<path d="M2800 6432 c0 -11 4 -23 8 -26 10 -6 9 30 -1 40 -4 4 -7 -2 -7 -14z"/>
<path d="M3111 6422 c0 -16 3 -21 6 -12 3 8 10 18 15 21 5 3 3 9 -6 12 -12 5
-16 0 -15 -21z"/>
<path d="M2714 6420 c1 -8 9 -16 19 -18 12 -3 17 3 16 20 -1 17 -3 18 -6 6 -5
-21 -20 -24 -26 -5 -2 7 -3 6 -3 -3z"/>
<path d="M2760 6430 c0 -5 7 -7 15 -4 8 4 15 8 15 10 0 2 -7 4 -15 4 -8 0 -15
-4 -15 -10z"/>
<path d="M2832 6423 c4 -21 33 -25 33 -3 0 8 -8 16 -18 18 -14 3 -18 -1 -15
-15z m28 -3 c0 -5 -4 -10 -10 -10 -5 0 -10 5 -10 10 0 6 5 10 10 10 6 0 10 -4
10 -10z"/>
<path d="M2881 6418 c1 -18 2 -19 6 -5 5 21 35 19 45 -3 5 -11 7 -9 7 8 1 18
-4 22 -29 22 -25 0 -30 -4 -29 -22z"/>
<path d="M2955 6430 c-8 -13 3 -30 18 -29 9 0 9 2 0 6 -7 2 -13 9 -13 15 0 6
7 7 16 4 8 -3 12 -2 9 4 -8 13 -22 13 -30 0z"/>
<path d="M3000 6420 c0 -11 2 -20 4 -20 2 0 6 9 9 20 3 11 1 20 -4 20 -5 0 -9
-9 -9 -20z"/>
<path d="M3155 6430 c-9 -15 4 -30 23 -29 15 1 15 2 -1 6 -9 2 -15 9 -11 14 3
5 10 7 15 4 5 -4 9 -1 9 4 0 14 -27 14 -35 1z"/>
<path d="M3205 6430 c-8 -13 3 -30 18 -30 7 0 6 4 -3 10 -13 9 -13 11 0 20 9
6 10 10 3 10 -6 0 -15 -4 -18 -10z"/>
<path d="M3263 6433 c-17 -6 -17 -20 0 -26 8 -3 13 3 13 14 0 11 0 19 -1 18 0
0 -6 -3 -12 -6z"/>
<path d="M3356 6432 c6 -4 14 -14 17 -22 4 -10 6 -8 6 8 1 15 -5 22 -16 22
-11 0 -14 -3 -7 -8z"/>
<path d="M2675 6410 c-16 -7 -17 -9 -3 -9 9 -1 20 4 23 9 7 11 7 11 -20 0z"/>
<path d="M2770 6410 c-13 -8 -12 -10 3 -10 9 0 17 5 17 10 0 12 -1 12 -20 0z"/>
<path d="M3057 6408 c2 -5 10 -8 18 -8 8 0 16 3 18 8 3 4 -5 7 -18 7 -13 0
-21 -3 -18 -7z"/>
<path d="M5342 4514 c4 -20 53 -30 64 -13 8 13 5 15 -34 24 -29 6 -33 5 -30
-11z"/>
<path d="M5502 4490 c0 -19 2 -27 5 -17 2 9 2 25 0 35 -3 9 -5 1 -5 -18z"/>
<path d="M5800 4490 c0 -16 4 -30 8 -30 5 0 7 14 4 30 -2 17 -6 30 -8 30 -2 0
-4 -13 -4 -30z"/>
<path d="M5551 4503 c0 -4 4 -17 9 -28 8 -19 9 -19 9 2 1 12 -3 25 -9 28 -5 3
-10 3 -9 -2z"/>
<path d="M5580 4491 c0 -11 3 -22 8 -24 4 -3 7 6 7 19 0 13 -3 24 -7 24 -5 0
-8 -9 -8 -19z"/>
<path d="M5704 4499 c-4 -7 -3 -9 4 -5 5 3 13 0 15 -6 4 -9 6 -10 6 -1 1 17
-16 25 -25 12z"/>
<path d="M5858 4492 c-11 -15 -11 -15 3 -5 9 7 19 10 22 6 11 -11 8 -21 -8
-26 -11 -4 -10 -4 2 -3 22 2 29 32 9 39 -8 3 -20 -2 -28 -11z"/>
<path d="M5923 4503 c-7 -3 -13 -14 -12 -26 0 -21 1 -20 11 3 l11 25 7 -25 c7
-23 8 -23 9 -3 1 24 -8 33 -26 26z"/>
<path d="M5532 4480 c0 -14 2 -19 5 -12 2 6 2 18 0 25 -3 6 -5 1 -5 -13z"/>
<path d="M5614 4488 c-8 -13 5 -28 24 -27 14 0 13 2 -3 9 -17 7 -17 9 -2 9 21
1 23 18 2 18 -9 0 -18 -4 -21 -9z"/>
<path d="M5832 4480 c0 -14 2 -19 5 -12 2 6 2 18 0 25 -3 6 -5 1 -5 -13z"/>
<path d="M5973 4487 c14 -11 15 -16 5 -20 -9 -4 -9 -6 -1 -6 23 -2 23 18 1 29
-21 10 -22 10 -5 -3z"/>
<path d="M5327 4474 c-15 -16 -5 -24 29 -24 24 0 34 4 32 13 -5 13 -50 22 -61
11z"/>
<path d="M5396 4466 c3 -9 11 -16 16 -16 13 0 5 23 -10 28 -7 2 -10 -2 -6 -12z"/>
<path d="M5700 4470 c0 -6 7 -10 15 -10 8 0 15 2 15 4 0 2 -7 6 -15 10 -8 3
-15 1 -15 -4z"/>
<path d="M5750 4470 c0 -6 7 -10 15 -10 8 0 15 2 15 4 0 2 -7 6 -15 10 -8 3
-15 1 -15 -4z"/>
<path d="M5331 4013 c1 -23 2 -24 6 -6 3 14 13 23 31 26 24 4 24 4 -5 6 -30 1
-33 -2 -32 -26z"/>
<path d="M5338 3693 c4 -17 7 -22 10 -12 2 11 10 15 23 12 10 -3 19 -1 19 4 0
5 -6 10 -12 10 -7 0 -20 4 -29 7 -14 6 -15 2 -11 -21z"/>
<path d="M977 3473 c-4 -3 -7 -19 -7 -34 0 -23 8 -32 40 -49 26 -13 40 -27 40
-40 0 -27 -43 -27 -70 0 -22 22 -40 26 -40 10 0 -26 41 -50 85 -50 38 0 47 4
54 23 12 30 -3 54 -45 74 -20 10 -34 24 -34 35 0 24 35 23 60 -2 11 -11 25
-20 30 -20 18 0 10 29 -12 44 -22 16 -89 22 -101 9z"/>
<path d="M8446 3471 c-4 -5 -2 -12 3 -15 5 -4 12 -2 15 3 4 5 2 12 -3 15 -5 4
-12 2 -15 -3z"/>
<path d="M8630 3455 c-20 -24 -1 -49 41 -55 49 -7 46 -35 -3 -34 -43 1 -51
-12 -14 -22 34 -8 57 -2 70 19 16 25 -4 51 -43 57 -37 6 -38 25 -1 26 40 1 39
19 -1 22 -24 2 -40 -2 -49 -13z"/>
<path d="M8390 3437 c0 -10 -8 -21 -17 -24 -25 -9 -33 -23 -33 -60 0 -43 -13
-42 -39 2 -11 19 -25 35 -31 35 -16 0 -12 -12 20 -60 33 -50 38 -78 15 -86
-19 -8 -20 -24 -1 -24 24 0 38 28 52 101 7 40 16 74 19 78 10 9 25 -22 25 -50
0 -37 23 -64 46 -54 17 7 17 9 2 12 -23 6 -37 91 -17 104 12 7 12 9 0 9 -8 0
-20 8 -27 18 -13 16 -13 16 -14 -1z"/>
<path d="M8528 3439 c-25 -14 -24 -80 0 -102 10 -10 28 -17 40 -17 21 0 52 24
52 41 0 15 -20 10 -26 -6 -16 -40 -69 1 -62 48 2 18 9 22 36 20 21 -1 32 3 29
10 -5 16 -48 19 -69 6z"/>
<path d="M1246 3423 c-6 -21 -36 -152 -36 -159 0 -2 6 -4 13 -4 8 0 20 21 28
48 11 36 19 47 34 47 22 0 23 -13 10 -77 -6 -30 -4 -38 7 -38 10 0 19 19 27
55 14 64 5 85 -36 85 -21 0 -24 4 -21 27 3 30 -18 43 -26 16z"/>
<path d="M5334 3416 c-3 -8 -4 -23 -1 -33 4 -14 5 -13 6 5 1 17 7 22 26 22 14
0 25 5 25 10 0 16 -50 12 -56 -4z"/>
<path d="M8210 3413 c1 -27 27 -143 34 -150 20 -20 17 20 -10 145 -5 26 -24
30 -24 5z"/>
<path d="M8456 3393 c11 -60 18 -83 27 -83 10 0 10 -1 2 63 -5 39 -12 57 -22
57 -11 0 -12 -8 -7 -37z"/>
<path d="M1116 3388 c-41 -57 2 -136 59 -110 38 17 31 34 -10 26 -35 -6 -35
-6 -35 29 0 47 23 66 50 42 23 -21 39 -12 24 13 -17 27 -69 27 -88 0z"/>
<path d="M4830 3395 c-9 -11 -9 -15 -1 -15 7 0 9 -5 5 -12 -4 -6 -3 -8 4 -4 6
3 10 15 9 26 -2 24 -1 24 -17 5z"/>
<path d="M4262 3380 c0 -14 2 -19 5 -12 2 6 2 18 0 25 -3 6 -5 1 -5 -13z"/>
<path d="M8108 3359 c-10 -5 -18 -17 -18 -24 0 -20 16 -19 24 0 3 8 14 15 25
15 10 0 21 -7 25 -15 4 -10 -1 -15 -14 -15 -20 0 -60 -33 -60 -49 0 -14 30
-41 45 -41 7 0 20 6 28 14 8 9 24 12 36 9 12 -3 21 -1 21 6 0 6 -4 11 -9 11
-5 0 -12 17 -16 38 -4 20 -11 43 -17 50 -12 14 -46 15 -70 1z m62 -73 c0 -7
-7 -19 -15 -26 -19 -16 -41 1 -32 24 8 20 47 21 47 2z"/>
<path d="M1371 3341 c-29 -29 -29 -96 -1 -111 27 -14 72 -9 78 9 4 11 -2 12
-23 7 -16 -4 -33 -2 -41 5 -27 23 -15 31 36 24 48 -7 50 -6 50 17 0 55 -62 86
-99 49z m64 -22 c11 -16 -1 -22 -30 -15 -14 4 -23 11 -20 16 8 13 42 13 50 -1z"/>
<path d="M1587 3353 c-4 -3 -7 -15 -7 -25 0 -15 -3 -17 -19 -8 -30 16 -49 12
-65 -12 -39 -63 -21 -111 45 -122 l36 -6 16 78 c9 42 17 83 17 90 0 13 -13 16
-23 5z m-27 -87 c0 -41 -23 -65 -45 -46 -10 8 -13 21 -9 39 9 37 13 41 35 41
15 0 19 -7 19 -34z"/>
<path d="M7836 3333 c-3 -10 -10 -46 -17 -80 -13 -70 -7 -104 11 -57 15 42 66
55 92 24 15 -18 38 -27 38 -15 0 3 -21 37 -46 75 -47 70 -68 85 -78 53z m51
-75 c-30 -19 -43 -9 -39 29 l5 37 23 -29 c17 -21 20 -31 11 -37z"/>
<path d="M7985 3336 l-31 -11 11 -54 c14 -75 36 -80 28 -7 -4 38 -2 56 6 58 6
0 17 1 23 2 8 1 17 -20 23 -48 13 -61 40 -79 29 -20 -9 53 -26 88 -44 90 -8 1
-29 -3 -45 -10z"/>
<path d="M1766 3303 c-6 -21 -36 -152 -36 -159 0 -2 6 -4 14 -4 12 0 35 78 50
164 2 17 -22 17 -28 -1z"/>
<path d="M1625 3290 c-4 -6 -9 -35 -12 -65 -5 -52 -5 -54 20 -60 14 -4 31 -4
36 0 6 3 11 1 11 -4 0 -26 28 -8 33 22 3 17 9 47 13 65 5 25 3 32 -9 32 -10 0
-18 -14 -22 -39 -7 -43 -27 -67 -46 -56 -7 5 -9 25 -4 61 6 51 -3 71 -20 44z"/>
<path d="M1805 3226 c-24 -36 -16 -88 15 -103 30 -14 70 -7 70 12 0 8 -12 12
-32 11 -23 -1 -33 4 -36 16 -3 16 2 17 42 12 44 -6 46 -6 46 19 0 56 -75 79
-105 33z m73 -17 c2 -13 -3 -15 -23 -12 -25 5 -31 14 -18 27 12 11 38 2 41
-15z"/>
<path d="M2037 3233 c-4 -3 -7 -18 -7 -32 0 -18 -7 -30 -22 -36 -34 -15 -36
-59 -4 -80 13 -9 33 -15 43 -14 10 1 29 -3 43 -8 30 -12 40 2 15 21 -15 11
-15 13 -1 25 16 13 22 41 10 41 -4 0 -13 -8 -20 -17 -12 -16 -15 -16 -24 -3
-14 21 -12 27 9 33 30 7 44 42 25 61 -16 16 -55 22 -67 9z m50 -30 c4 -11 -26
-27 -35 -19 -2 3 -2 12 2 21 6 18 27 16 33 -2z m-43 -79 c8 -31 5 -37 -18 -28
-23 9 -20 54 5 54 4 0 10 -12 13 -26z"/>
<path d="M2235 3189 c-5 -15 -35 -147 -35 -155 0 -2 6 -4 14 -4 8 0 17 13 21
30 6 29 8 30 46 24 30 -5 44 -2 59 11 27 24 25 61 -2 79 -35 22 -97 31 -103
15z m89 -39 c18 -18 -3 -40 -39 -40 -37 0 -38 2 -29 38 6 19 11 22 33 17 14
-4 30 -10 35 -15z"/>
<path d="M2380 3105 c-6 -8 -14 -32 -17 -53 -4 -33 -2 -42 18 -56 31 -21 55
-20 79 4 27 27 28 95 1 110 -28 14 -67 12 -81 -5z m65 -50 c0 -36 -3 -40 -25
-40 -29 0 -38 31 -20 65 19 35 45 21 45 -25z"/>
<path d="M5337 3098 c4 -7 7 -22 6 -33 -1 -16 -1 -17 3 -2 3 10 13 16 21 15 9
-2 18 3 20 10 3 7 -1 10 -10 6 -8 -3 -18 -1 -22 5 -3 6 -11 11 -16 11 -6 0 -7
-6 -2 -12z"/>
<path d="M2632 3084 c-8 -8 -15 -43 -18 -78 -3 -52 -1 -65 12 -70 23 -9 37 3
23 20 -16 19 -3 84 17 84 9 0 13 5 10 13 -3 6 -9 20 -12 30 -8 21 -15 21 -32
1z"/>
<path d="M2702 3088 c6 -18 28 -21 28 -4 0 9 -7 16 -16 16 -9 0 -14 -5 -12
-12z"/>
<path d="M2505 3070 c-7 -24 7 -46 36 -55 10 -4 19 -13 19 -21 0 -18 -34 -18
-50 1 -17 20 -33 9 -20 -15 13 -24 66 -36 85 -20 24 20 17 48 -15 72 -16 12
-30 25 -30 30 0 14 28 9 45 -8 20 -20 33 -10 19 14 -6 10 -27 18 -47 20 -29 3
-37 -1 -42 -18z"/>
<path d="M2680 3000 c-9 -44 -10 -64 -2 -72 7 -7 14 2 22 32 16 59 17 92 4 97
-7 2 -16 -21 -24 -57z"/>
<path d="M2731 2983 c-14 -72 -14 -73 4 -73 8 0 15 6 15 13 0 37 22 87 39 87
27 0 29 -7 19 -52 -10 -46 -4 -78 13 -61 6 6 13 35 16 65 6 62 1 69 -57 74
l-37 3 -12 -56z"/>
<path d="M2877 2996 c-9 -9 -19 -33 -23 -53 -6 -31 -3 -39 16 -55 13 -11 31
-16 41 -13 14 5 17 2 13 -9 -7 -18 -39 -22 -49 -6 -3 6 -13 10 -21 10 -24 0 1
-37 30 -44 48 -12 62 5 86 108 11 49 9 58 -13 63 -7 1 -24 5 -38 9 -17 4 -31
0 -42 -10z m63 -45 c0 -35 -14 -54 -36 -49 -15 3 -19 12 -17 37 2 55 53 66 53
12z"/>
</g>
</svg>
